<?xml version="1.0" standalone="no"?>
<!DOCTYPE svg PUBLIC "-//W3C//DTD SVG 20010904//EN"
 "http://www.w3.org/TR/2001/REC-SVG-20010904/DTD/svg10.dtd">
<svg version="1.0" xmlns="http://www.w3.org/2000/svg"
 width="1024.000000pt" height="1024.000000pt" viewBox="0 0 1024.000000 1024.000000"
 preserveAspectRatio="xMidYMid meet">
<metadata>
Created by potrace 1.11, written by Peter Selinger 2001-2013
</metadata>
<g transform="translate(0.000000,1024.000000) scale(0.100000,-0.100000)"
fill="#000000" stroke="none">
<path d="M2999 10236 c-2 -2 -37 -7 -77 -10 -41 -4 -89 -9 -108 -11 -64 -9
-99 -15 -119 -19 -11 -2 -40 -7 -65 -12 -25 -4 -47 -8 -50 -9 -3 -1 -23 -5
-45 -9 -36 -7 -85 -20 -125 -34 -8 -3 -24 -7 -35 -9 -11 -2 -49 -13 -85 -25
-36 -12 -67 -23 -70 -23 -25 -5 -92 -30 -177 -67 -23 -10 -44 -18 -47 -18 -9
0 -280 -132 -286 -139 -3 -3 -18 -13 -35 -21 -16 -8 -32 -18 -35 -21 -3 -3
-32 -22 -65 -41 -213 -129 -461 -351 -606 -543 -75 -99 -138 -201 -187 -303
-26 -53 -47 -100 -48 -104 -1 -5 -2 -9 -4 -10 -1 -2 -3 -10 -5 -18 -3 -8 -16
-53 -30 -99 -14 -46 -25 -91 -25 -100 0 -10 -3 -21 -7 -24 -3 -4 -8 -24 -11
-44 -9 -71 -12 -5447 -3 -5488 5 -22 12 -56 14 -75 3 -19 8 -45 11 -58 3 -12
8 -32 11 -44 35 -159 171 -424 303 -588 78 -97 225 -248 302 -310 24 -19 48
-40 54 -45 6 -6 27 -22 46 -35 19 -13 37 -27 40 -30 8 -10 208 -140 215 -140
4 0 26 -14 51 -30 24 -17 44 -28 44 -24 0 3 7 1 15 -6 20 -17 118 -64 128 -62
4 1 7 -2 7 -6 0 -4 17 -14 38 -21 20 -8 55 -22 77 -32 81 -36 273 -104 350
-123 6 -2 17 -5 25 -9 20 -7 99 -26 130 -31 14 -3 25 -5 25 -6 0 -1 11 -3 25
-6 14 -2 57 -10 95 -18 39 -9 94 -18 124 -21 30 -4 63 -8 74 -11 37 -7 152
-16 252 -19 55 -2 102 -4 105 -5 3 -1 8 -2 13 -1 16 2 4 -10 -50 -52 -32 -25
-68 -53 -80 -63 -12 -11 -34 -28 -49 -39 -24 -17 -58 -44 -101 -80 -16 -13
-29 -23 -83 -65 -25 -19 -47 -37 -50 -40 -3 -3 -23 -19 -45 -35 -49 -37 -73
-56 -94 -75 -9 -8 -55 -44 -101 -80 -47 -35 -87 -67 -90 -70 -3 -3 -21 -17
-42 -32 -20 -15 -42 -34 -50 -41 -7 -7 -29 -24 -48 -37 -19 -14 -42 -32 -51
-40 -20 -19 -37 -32 -119 -95 -36 -27 -70 -54 -76 -60 -6 -5 -26 -21 -44 -35
-18 -14 -44 -35 -59 -47 -14 -13 -29 -23 -33 -23 -5 0 -8 -7 -8 -15 0 -8 -5
-15 -11 -15 -5 0 -8 -4 -4 -9 3 -5 1 -12 -4 -15 -5 -4 -8 -31 -6 -62 4 -63 35
-112 86 -138 29 -14 332 -16 3105 -16 1754 0 3083 4 3096 9 13 5 27 9 31 9 11
1 40 39 60 77 17 34 16 109 -2 143 -6 12 -40 44 -74 72 -34 28 -80 65 -101 83
-21 17 -45 33 -52 35 -8 2 -14 7 -14 11 0 4 -19 22 -42 39 -24 17 -55 41 -70
54 -14 13 -36 30 -48 38 -12 8 -30 22 -40 31 -10 8 -31 24 -45 35 -15 10 -37
28 -49 39 -12 11 -38 31 -56 45 -54 40 -95 74 -98 83 -2 4 -8 7 -13 7 -5 0
-17 8 -28 17 -10 10 -31 28 -47 40 -116 89 -162 125 -179 143 -12 11 -24 20
-28 20 -4 0 -15 8 -26 17 -10 10 -33 30 -52 45 -19 14 -64 50 -101 80 -36 29
-80 64 -98 77 -17 13 -29 26 -26 28 2 2 57 6 122 9 120 4 229 12 229 15 0 1
11 3 25 4 54 4 133 17 250 42 41 8 86 17 100 19 14 3 32 8 40 11 8 4 23 7 32
8 16 2 175 50 208 62 8 4 18 7 23 8 4 2 8 3 10 5 1 1 9 3 17 5 36 7 216 83
320 135 116 57 146 73 171 91 14 10 29 16 33 12 3 -3 6 -2 6 4 0 6 14 16 30
23 16 7 30 16 30 21 0 5 7 9 15 9 8 0 15 5 15 11 0 5 4 8 9 4 6 -3 13 0 18 7
4 7 20 19 34 26 14 8 38 24 52 36 14 12 38 31 53 42 29 21 101 79 124 100 53
49 200 197 227 230 18 21 46 55 63 75 16 20 30 40 30 44 0 3 6 13 13 20 27 31
36 43 52 76 10 19 21 36 25 39 3 3 22 37 41 75 19 39 38 73 42 76 5 3 8 9 8
13 -1 8 8 33 24 71 17 41 55 163 61 194 2 14 11 62 19 106 12 68 14 471 11
2785 -2 1488 -6 2716 -8 2730 -3 14 -8 36 -12 50 -3 14 -8 36 -10 50 -7 34
-40 144 -64 207 -21 54 -93 205 -103 213 -3 3 -20 31 -38 63 -18 31 -37 57
-42 57 -5 0 -11 11 -15 25 -3 14 -10 25 -14 25 -4 0 -20 19 -36 43 -44 65
-278 295 -379 373 -87 67 -233 167 -285 194 -14 7 -27 16 -30 19 -16 19 -420
206 -420 194 0 -3 -6 -1 -12 4 -22 17 -287 101 -378 119 -13 3 -56 12 -95 20
-38 8 -88 17 -109 20 -22 3 -43 7 -46 9 -4 2 -38 7 -76 11 -38 3 -78 9 -89 12
-22 7 -4329 14 -4336 8z m-869 -1919 c0 4 25 8 55 8 30 0 55 -3 55 -7 0 -4 11
-3 25 2 15 6 26 6 30 -1 4 -6 13 -6 23 0 10 6 23 6 34 0 10 -5 18 -6 18 -2 0
4 25 8 55 8 30 0 55 -3 55 -7 0 -4 11 -3 25 2 15 6 26 6 30 -1 4 -6 13 -6 23
0 10 6 23 6 34 0 10 -5 18 -6 18 -2 0 4 25 8 55 8 30 0 55 -3 55 -7 0 -4 11
-3 25 2 15 6 26 6 30 -1 4 -6 13 -6 23 0 10 6 23 6 34 0 10 -5 18 -6 18 -2 0
4 25 8 55 8 30 0 55 -3 55 -7 0 -4 11 -3 25 2 16 6 26 6 31 -1 4 -7 10 -7 16
-1 7 7 19 7 34 2 13 -5 24 -6 24 -2 0 8 95 6 117 -3 7 -2 15 0 18 5 3 5 15 6
28 1 12 -5 32 -5 44 0 13 5 25 4 28 -2 4 -5 11 -6 18 -2 16 10 57 10 57 0 0
-4 8 -4 18 1 9 5 26 6 37 2 11 -4 30 -4 42 1 13 5 25 4 29 -2 3 -6 10 -6 17
-1 7 5 21 6 32 2 11 -4 30 -4 42 1 13 5 25 4 28 -2 4 -5 11 -6 18 -2 16 10 57
10 57 0 0 -4 8 -4 17 2 10 5 26 5 39 1 12 -5 24 -7 27 -4 8 9 88 10 93 2 3 -5
13 -4 22 1 10 6 23 6 34 0 10 -5 18 -6 18 -2 0 9 52 9 66 0 6 -3 16 -2 24 3 8
5 21 5 31 -1 11 -6 20 -5 24 1 4 6 15 6 30 0 14 -5 25 -6 25 -2 0 4 11 7 25 7
14 0 25 -3 25 -7 0 -4 11 -3 25 2 15 6 26 6 30 -1 4 -6 13 -6 23 0 10 6 23 6
34 0 10 -6 19 -5 23 1 3 6 15 6 30 0 15 -6 27 -6 30 0 3 6 15 6 30 0 14 -5 25
-6 25 -2 0 4 25 7 55 7 30 0 55 -4 55 -8 0 -4 8 -4 17 2 11 6 24 6 35 0 10 -6
19 -5 23 1 4 6 15 6 30 0 14 -5 25 -6 25 -2 0 4 25 7 55 7 30 0 55 -4 55 -8 0
-4 8 -4 17 2 11 6 24 6 35 0 10 -6 19 -5 23 1 4 6 15 6 30 0 14 -5 25 -6 25
-2 0 8 203 7 225 -2 8 -3 15 -2 15 2 0 4 25 7 55 7 30 0 55 -4 55 -8 0 -4 8
-4 17 2 11 6 24 6 35 0 10 -6 19 -5 23 1 4 6 15 6 30 0 14 -5 25 -6 25 -2 0 4
25 7 55 7 30 0 55 -4 55 -8 0 -4 8 -4 17 2 11 6 24 6 35 0 10 -6 19 -5 23 1 4
6 15 6 30 0 14 -5 25 -6 25 -2 0 4 25 7 55 7 30 0 55 -4 55 -8 0 -5 5 -5 11
-1 15 9 129 11 129 2 0 -4 11 -3 25 2 15 6 26 6 30 -1 4 -6 13 -6 23 0 10 6
23 6 34 0 10 -5 18 -6 18 -2 0 9 52 9 66 0 6 -3 16 -2 24 3 8 5 21 5 31 -1 11
-6 20 -5 24 1 4 6 15 6 30 0 14 -5 25 -6 25 -2 0 4 11 7 25 7 14 0 25 -3 25
-7 0 -4 11 -3 25 2 13 5 27 5 30 1 3 -5 20 -6 38 -1 18 4 43 3 55 -1 12 -5 22
-5 22 -1 0 4 25 7 55 7 30 0 55 -4 55 -8 0 -4 8 -4 17 2 11 6 24 6 35 0 10 -6
19 -5 23 1 4 6 15 6 30 0 14 -5 25 -6 25 -2 0 4 25 7 55 7 30 0 55 -4 55 -8 0
-4 8 -4 17 2 11 6 24 6 35 0 10 -6 19 -5 23 1 4 6 15 6 30 0 14 -5 25 -6 25
-2 0 4 25 7 55 7 30 0 55 -4 55 -8 0 -5 5 -5 11 -1 15 9 129 11 129 2 0 -4 11
-3 25 2 15 6 26 6 30 -1 4 -6 13 -6 23 0 10 6 23 6 34 0 10 -5 18 -6 18 -2 0
9 52 9 66 0 6 -3 16 -2 24 3 8 5 21 5 31 -1 11 -6 20 -5 24 1 4 6 15 6 30 0
14 -5 25 -6 25 -2 0 4 11 7 25 7 14 0 25 -3 25 -7 0 -4 11 -3 25 2 13 5 27 6
29 1 3 -4 26 -5 51 -1 25 4 48 3 51 -2 3 -4 13 -4 22 1 10 6 23 6 34 0 10 -5
18 -6 18 -2 0 9 52 9 66 0 6 -3 16 -2 24 3 8 5 21 5 31 -1 11 -6 20 -5 24 1 3
6 15 6 30 0 15 -6 27 -6 30 0 3 5 15 6 28 1 12 -5 32 -5 44 0 13 5 25 4 28 -1
4 -7 13 -7 24 0 10 5 21 7 24 3 4 -3 26 -8 49 -10 84 -7 134 -24 203 -68 129
-82 222 -240 221 -372 -1 -29 2 -53 6 -53 4 0 3 -13 -2 -29 -4 -15 -4 -34 1
-42 4 -7 4 -18 -1 -24 -5 -6 -5 -17 -1 -24 5 -7 5 -28 1 -47 -4 -19 -4 -34 0
-34 5 0 5 -13 0 -30 -5 -16 -6 -30 -2 -30 8 0 7 -68 -1 -76 -3 -3 -2 -17 3
-30 6 -14 6 -24 0 -24 -5 0 -5 -12 0 -30 5 -17 5 -30 0 -30 -5 0 -5 -13 0 -30
5 -17 5 -30 0 -30 -5 0 -5 -13 0 -30 5 -17 5 -30 0 -30 -5 0 -5 -12 -1 -28 5
-15 5 -37 0 -49 -5 -13 -4 -25 1 -28 7 -4 7 -13 0 -24 -5 -10 -7 -21 -4 -24 9
-8 10 -97 2 -97 -4 0 -4 -10 1 -23 5 -13 5 -30 0 -39 -6 -10 -6 -19 0 -22 6
-4 6 -18 1 -35 -4 -15 -4 -34 0 -42 5 -7 5 -20 0 -29 -5 -9 -5 -22 0 -30 4 -7
5 -20 2 -29 -3 -9 -5 -31 -4 -51 1 -19 2 -41 2 -47 0 -7 0 -20 0 -28 0 -8 0
-22 0 -30 0 -8 0 -22 0 -30 0 -8 0 -22 0 -30 0 -8 0 -22 0 -30 0 -8 0 -22 0
-30 0 -8 0 -22 0 -30 0 -8 0 -22 0 -30 0 -8 0 -22 0 -30 0 -8 0 -22 0 -30 0
-8 0 -22 0 -30 0 -8 0 -22 0 -30 0 -8 0 -22 0 -30 0 -8 0 -22 0 -30 0 -8 0
-22 0 -30 0 -8 0 -22 0 -30 0 -8 0 -21 0 -27 -1 -7 1 -34 2 -61 2 -26 0 -47
-4 -47 -4 0 -4 -10 1 -23 5 -13 5 -30 0 -39 -6 -10 -6 -19 0 -22 6 -4 6 -18 1
-35 -4 -15 -4 -34 0 -42 5 -7 5 -20 0 -29 -5 -9 -5 -22 0 -30 5 -8 6 -18 3
-23 -8 -13 -9 -97 -1 -97 4 0 3 -13 -2 -30 -5 -17 -5 -30 0 -30 5 0 7 -6 5
-12 -3 -7 -7 -38 -9 -68 -7 -78 -43 -186 -73 -218 -7 -7 -13 -17 -13 -21 0
-13 -83 -90 -129 -121 -70 -47 -205 -88 -268 -81 -31 3 -42 3 -113 2 -41 0
-83 -1 -92 0 -23 0 -222 0 -245 0 -69 -2 -178 1 -184 5 -4 2 -10 1 -13 -4 -2
-4 -34 -5 -71 -2 -36 3 -70 3 -75 0 -5 -3 -39 -3 -75 0 -36 3 -70 3 -75 0 -4
-3 -47 -3 -95 0 -48 3 -88 3 -90 0 -2 -3 -33 -3 -70 0 -36 3 -70 3 -75 0 -5
-3 -39 -3 -75 0 -36 3 -70 3 -75 0 -4 -3 -47 -3 -95 0 -48 3 -88 3 -90 0 -2
-3 -33 -3 -70 0 -36 3 -70 3 -75 0 -5 -3 -39 -3 -75 0 -36 3 -70 3 -75 0 -4
-3 -47 -3 -95 0 -48 3 -88 3 -90 0 -2 -3 -33 -3 -70 0 -36 3 -70 3 -75 0 -5
-3 -39 -3 -75 0 -36 3 -70 3 -75 0 -4 -3 -47 -3 -95 0 -48 3 -89 2 -92 -3 -2
-4 -9 -5 -14 -2 -7 5 -72 6 -264 3 -5 0 -75 0 -155 1 -80 0 -152 0 -160 0 -8
-1 -26 0 -40 1 -14 1 -54 2 -90 1 -36 0 -72 0 -80 0 -8 1 -44 1 -80 0 -36 0
-72 0 -80 0 -8 1 -44 1 -80 0 -36 0 -72 0 -80 0 -8 1 -44 1 -80 0 -36 0 -72 0
-80 0 -8 1 -44 1 -80 0 -36 0 -72 0 -80 0 -8 1 -44 1 -80 0 -36 0 -72 0 -80 0
-8 1 -44 1 -80 0 -36 0 -72 0 -80 0 -8 1 -44 1 -80 0 -36 0 -72 0 -80 0 -8 1
-44 1 -80 0 -36 0 -72 0 -80 0 -8 1 -44 1 -80 0 -36 0 -72 0 -80 0 -8 1 -44 1
-80 0 -36 0 -72 0 -80 0 -8 1 -44 1 -80 0 -36 0 -72 0 -80 0 -8 1 -44 1 -80 0
-36 0 -72 0 -80 0 -8 1 -44 1 -80 0 -36 0 -72 0 -80 0 -8 1 -44 1 -80 0 -36 0
-72 0 -80 0 -8 1 -44 1 -80 0 -36 0 -73 0 -82 0 -22 0 -202 0 -225 0 -10 0
-34 -1 -53 -1 -66 -2 -195 23 -210 40 -3 3 -21 12 -40 22 -137 64 -240 229
-246 391 -1 38 -5 71 -8 74 -2 3 -1 16 4 29 6 14 6 26 -1 29 -5 4 -7 11 -3 16
8 14 10 99 2 99 -4 0 -3 14 2 30 5 17 6 30 2 30 -8 0 -7 68 1 76 3 3 2 17 -3
30 -6 14 -6 24 0 24 5 0 5 12 0 30 -5 17 -5 30 0 30 5 0 5 13 0 30 -5 17 -5
30 0 30 5 0 5 13 0 30 -5 17 -5 30 0 30 5 0 5 12 1 28 -5 15 -5 37 0 49 5 13
4 25 -1 28 -6 4 -7 13 -1 24 5 9 6 23 2 30 -5 7 -5 30 -1 51 4 21 4 44 -1 51
-4 7 -3 21 2 30 6 11 5 20 -1 24 -5 3 -6 15 -1 28 5 12 5 34 0 49 -4 16 -4 28
1 28 5 0 5 13 0 30 -5 17 -5 30 0 30 5 0 5 13 0 30 -5 17 -5 30 0 30 5 0 5 13
0 30 -5 18 -5 30 0 30 6 0 6 10 0 24 -5 13 -6 27 -3 30 8 8 9 76 1 76 -4 0 -3
14 2 30 5 17 5 30 1 30 -4 0 -5 22 -1 50 3 27 3 55 -1 62 -4 6 -3 20 2 29 6
11 5 20 -1 24 -5 3 -6 15 -1 28 5 12 5 34 0 49 -4 16 -4 28 1 28 5 0 5 13 0
30 -5 17 -5 30 0 30 5 0 5 13 0 30 -5 17 -5 30 0 30 5 0 5 13 0 30 -5 18 -5
30 0 30 6 0 6 10 0 24 -5 13 -6 27 -3 30 8 8 9 76 1 76 -4 0 -3 14 2 30 5 17
6 30 2 30 -8 0 -6 85 2 99 4 5 2 12 -3 15 -6 4 -6 18 -1 36 5 19 5 30 -1 30
-6 0 -8 4 -5 9 3 5 8 38 11 74 8 106 58 216 132 291 43 43 134 105 164 111 10
2 24 7 29 10 13 8 45 15 105 21 27 3 51 7 54 9 2 2 12 0 22 -6 11 -5 19 -6 19
-2z m3079 -4003 c108 -6 242 -36 326 -73 102 -44 222 -113 237 -135 4 -6 8 -8
8 -3 0 29 211 -191 272 -285 65 -101 123 -219 132 -269 3 -13 5 -25 7 -26 1
-2 2 -6 4 -10 1 -5 4 -15 7 -23 7 -18 17 -67 26 -130 8 -60 8 -275 0 -325 -16
-91 -20 -111 -27 -130 -20 -53 -43 -121 -43 -132 -1 -7 -5 -13 -10 -13 -4 0
-8 -6 -8 -13 0 -8 -11 -34 -25 -58 -14 -24 -30 -55 -37 -69 -7 -14 -16 -29
-21 -35 -4 -5 -24 -32 -44 -60 -47 -63 -212 -225 -230 -225 -7 0 -13 -4 -13
-8 0 -9 -125 -84 -136 -82 -4 1 -10 -3 -13 -8 -15 -24 -192 -84 -318 -108 -19
-4 -135 -13 -178 -15 -96 -4 -247 22 -384 67 -55 18 -239 110 -251 125 -3 4
-27 23 -55 44 -138 102 -280 288 -349 455 -61 147 -80 248 -80 430 -1 202 28
330 112 500 15 30 29 57 32 60 10 10 31 45 36 63 4 9 10 17 14 17 5 0 12 9 15
20 11 36 198 214 280 268 44 29 86 57 93 62 6 6 12 8 12 6 0 -3 17 3 38 14 48
25 172 71 172 65 0 -3 9 -1 19 5 11 5 36 13 56 16 21 3 47 8 59 10 11 3 56 7
100 9 43 2 81 6 84 9 2 3 10 3 15 -1 6 -4 36 -8 66 -9z"/>
</g>
</svg>
